General
ID : 1 (0x1)
Complete name :Mashallah - Song - Ek Tha Tiger - Salman Khan & Katrina Kaif.m2ts
Format : BDAV
Format/Info : Blu-ray Video
File size : 43.0 MiB
Duration : 3mn 9s
Overall bit rate mode : Variable
Overall bit rate : 1 907 Kbps
Maximum Overall bit rate : 35.5 Mbps
Video
ID : 4113 (0x1011)
Menu ID : 1 (0x1)
Format : AVC
Format/Info : Advanced Video Codec
Format profile : High@L3.1
Format settings, CABAC : Yes
Format settings, ReFrames : 4 frames
Codec ID : 27
Duration : 3mn 9s
Bit rate mode : Variable
Bit rate : 1 439 Kbps
Nominal bit rate : 1 351 Kbps
Maximum bit rate : 40.0 Mbps
Width : 1 280 pixels
Height : 544 pixels
Display aspect ratio : 2.35:1
Frame rate : 24.000 fps
Color space : YUV
Chroma subsampling : 4:2:0
Bit depth : 8 bits
Scan type : Progressive
Bits/(Pixel*Frame) : 0.086
Stream size : 32.4 MiB (75%)
Writing library : x264 core 125 r2200 999b753
Audio
ID : 4352 (0x1100)
Menu ID : 1 (0x1)
Format : AC-3
Format/Info : Audio Coding 3
Codec ID : 129
Duration : 3mn 8s
Bit rate : 384 Kbps
Channel(s) : 2 channels
Sampling rate : 44.1 KHz
Compression mode : Lossy
Stream size : 8.65 MiB (20%)